HIERARCHY
ROOT hip
{
  OFFSET -35.5296 82.1593 -31.3387
  CHANNELS 6 Xposition Yposition Zposition Zrotation Xrotation Yrotation
  JOINT abdomen
  {
    OFFSET 0 20.6881 -0.73152
    CHANNELS 3 Zrotation Xrotation Yrotation
    JOINT chest
    {
      OFFSET 0 11.7043 -0.48768
      CHANNELS 3 Zrotation Xrotation Yrotation
      JOINT neck
      {
        OFFSET 0 22.1894 -2.19456
        CHANNELS 3 Zrotation Xrotation Yrotation
        JOINT head
        {
          OFFSET -0.24384 7.07133 1.2192
          CHANNELS 3 Zrotation Xrotation Yrotation
          JOINT leftEye
          {
            OFFSET 4.14528 8.04674 8.04672
            CHANNELS 3 Zrotation Xrotation Yrotation
            End Site
            {
              OFFSET 1 0 0
            }
          }
          JOINT rightEye
          {
            OFFSET -3.6576 8.04674 8.04672
            CHANNELS 3 Zrotation Xrotation Yrotation
            End Site
            {
              OFFSET 1 0 0
            }
          }
        }
      }
      JOINT rCollar
      {
        OFFSET -2.68224 19.2634 -4.8768
        CHANNELS 3 Zrotation Xrotation Yrotation
        JOINT rShldr
        {
          OFFSET -8.77824 -1.95073 1.46304
          CHANNELS 3 Zrotation Xrotation Yrotation
          JOINT rForeArm
          {
            OFFSET -28.1742 -1.7115 0.48768
            CHANNELS 3 Zrotation Xrotation Yrotation
            JOINT rHand
            {
              OFFSET -22.5879 0.773209 7.07136
              CHANNELS 3 Zrotation Xrotation Yrotation
              JOINT rThumb1
              {
                OFFSET -1.2192 -0.487915 3.41376
                CHANNELS 3 Zrotation Xrotation Yrotation
                JOINT rThumb2
                {
                  OFFSET -3.37035 -0.52449 3.41376
                  CHANNELS 3 Zrotation Xrotation Yrotation
                  End Site
                  {
                    OFFSET -1.78271 -1.18214 1.43049
                  }
                }
              }
              JOINT rIndex1
              {
                OFFSET -7.75947 0.938293 5.60832
                CHANNELS 3 Zrotation Xrotation Yrotation
                JOINT rIndex2
                {
                  OFFSET -2.54057 -0.884171 1.56538
                  CHANNELS 3 Zrotation Xrotation Yrotation
                  End Site
                  {
                    OFFSET -1.62519 -0.234802 1.16502
                  }
                }
              }
              JOINT rMid1
              {
                OFFSET -8.24714 1.18213 3.41376
                CHANNELS 3 Zrotation Xrotation Yrotation
                JOINT rMid2
                {
                  OFFSET -3.10165 -0.590103 1.0647
                  CHANNELS 3 Zrotation Xrotation Yrotation
                  End Site
                  {
                    OFFSET -2.48547 -0.328903 0.83742
                  }
                }
              }
              JOINT rRing1
              {
                OFFSET -8.82822 0.546677 1.51678
                CHANNELS 3 Zrotation Xrotation Yrotation
                JOINT rRing2
                {
                  OFFSET -2.60934 -0.819778 -0.0198488
                  CHANNELS 3 Zrotation Xrotation Yrotation
                  End Site
                  {
                    OFFSET -2.33842 -0.294052 0.168128
                  }
                }
              }
              JOINT rPinky1
              {
                OFFSET -8.27202 -0.0477905 -0.4584
                CHANNELS 3 Zrotation Xrotation Yrotation
                JOINT rPinky2
                {
                  OFFSET -1.82734 -0.647385 -0.700984
                  CHANNELS 3 Zrotation Xrotation Yrotation
                  End Site
                  {
                    OFFSET -1.69225 -0.51767 -0.607171
                  }
                }
              }
            }
          }
        }
      }
      JOINT lCollar
      {
        OFFSET 2.68224 19.2634 -4.8768
        CHANNELS 3 Zrotation Xrotation Yrotation
        JOINT lShldr
        {
          OFFSET 8.77824 -1.95073 1.46304
          CHANNELS 3 Zrotation Xrotation Yrotation
          JOINT lForeArm
          {
            OFFSET 28.1742 -1.7115 0.48768
            CHANNELS 3 Zrotation Xrotation Yrotation
            JOINT lHand
            {
              OFFSET 22.5879 0.773209 7.07136
              CHANNELS 3 Zrotation Xrotation Yrotation
              JOINT lThumb1
              {
                OFFSET 1.2192 -0.487915 3.41376
                CHANNELS 3 Zrotation Xrotation Yrotation
                JOINT lThumb2
                {
                  OFFSET 3.37035 -0.52449 3.41376
                  CHANNELS 3 Zrotation Xrotation Yrotation
                  End Site
                  {
                    OFFSET 1.78271 -1.18214 1.43049
                  }
                }
              }
              JOINT lIndex1
              {
                OFFSET 7.75947 0.938293 5.60832
                CHANNELS 3 Zrotation Xrotation Yrotation
                JOINT lIndex2
                {
                  OFFSET 2.54057 -0.884171 1.56538
                  CHANNELS 3 Zrotation Xrotation Yrotation
                  End Site
                  {
                    OFFSET 1.62519 -0.234802 1.16502
                  }
                }
              }
              JOINT lMid1
              {
                OFFSET 8.24714 1.18213 3.41376
                CHANNELS 3 Zrotation Xrotation Yrotation
                JOINT lMid2
                {
                  OFFSET 3.10165 -0.590103 1.0647
                  CHANNELS 3 Zrotation Xrotation Yrotation
                  End Site
                  {
                    OFFSET 2.48547 -0.328903 0.83742
                  }
                }
              }
              JOINT lRing1
              {
                OFFSET 8.82822 0.546677 1.51678
                CHANNELS 3 Zrotation Xrotation Yrotation
                JOINT lRing2
                {
                  OFFSET 2.60934 -0.819778 -0.0198488
                  CHANNELS 3 Zrotation Xrotation Yrotation
                  End Site
                  {
                    OFFSET 2.33842 -0.294052 0.168128
                  }
                }
              }
              JOINT lPinky1
              {
                OFFSET 8.27202 -0.0477905 -0.4584
                CHANNELS 3 Zrotation Xrotation Yrotation
                JOINT lPinky2
                {
                  OFFSET 1.82734 -0.647385 -0.700984
                  CHANNELS 3 Zrotation Xrotation Yrotation
                  End Site
                  {
                    OFFSET 1.69225 -0.51767 -0.607171
                  }
                }
              }
            }
          }
        }
      }
    }
  }
  JOINT rButtock
  {
    OFFSET -8.77824 4.35084 1.2192
    CHANNELS 3 Zrotation Xrotation Yrotation
    JOINT rThigh
    {
      OFFSET 0 -1.70687 -2.19456
      CHANNELS 3 Zrotation Xrotation Yrotation
      JOINT rShin
      {
        OFFSET 0 -36.8199 0.73152
        CHANNELS 3 Zrotation Xrotation Yrotation
        JOINT rFoot
        {
          OFFSET 0.73152 -45.1104 -5.12064
          CHANNELS 3 Zrotation Xrotation Yrotation
          End Site
          {
            OFFSET -1.1221 -3.69964 12.103
          }
        }
      }
    }
  }
  JOINT lButtock
  {
    OFFSET 8.77824 4.35084 1.2192
    CHANNELS 3 Zrotation Xrotation Yrotation
    JOINT lThigh
    {
      OFFSET 0 -1.70687 -2.19456
      CHANNELS 3 Zrotation Xrotation Yrotation
      JOINT lShin
      {
        OFFSET 0 -36.8199 0.73152
        CHANNELS 3 Zrotation Xrotation Yrotation
        JOINT lFoot
        {
          OFFSET -0.73152 -45.1104 -5.12064
          CHANNELS 3 Zrotation Xrotation Yrotation
          End Site
          {
            OFFSET 1.1221 -3.69964 12.103
          }
        }
      }
    }
  }
}
MOTION
Frames:	8
Frame Time:	0.00833333
62.7689 85.415 91.0224 -1.27366 0.00383553 0.0239685 1.67537 -0.00249556 0.0455945 0.461929 0.00238702 0.0799906 3.68807e-014 7.95139e-016 -2.48483e-017 1.10223e-013 3.18055e-015 7.14382e-017 -0 0 0 -0 0 0 1.84862e-014 -6.40615e-018 1.98785e-016 3.87319e-013 -1.2424e-017 2.78299e-015 6.65556e-012 -1.98646e-012 -5.08889e-014 7.60131e-011 1.97301e-012 2.13097e-013 1.79326e-010 -3.29249e-014 3.62583e-013 3.09659e-010 -5.725e-014 6.14642e-013 1.7933e-010 -3.49861e-014 3.56222e-013 7.73091 5.47488 0.417314 1.79325e-010 -3.38928e-014 3.62583e-013 2.90554 0.965183 0.102902 1.7933e-010 -3.27995e-014 3.58608e-013 10.2786 0.731801 0.0259123 1.79316e-010 -2.74323e-014 3.68944e-013 2.22167 -0.733487 -0.20892 1.82902e-014 -8.54153e-018 -9.93923e-017 3.85388e-013 -1.86361e-017 7.95139e-016 6.63424e-012 1.98884e-012 -5.40694e-014 7.60425e-011 -2.00477e-012 2.44903e-013 1.79351e-010 -3.59383e-014 3.72125e-013 3.09755e-010 -6.36111e-014 6.33725e-013 1.79349e-010 -3.89618e-014 3.75305e-013 -7.73091 5.47488 -0.417314 1.79353e-010 -3.71727e-014 3.68944e-013 -2.90554 0.965183 -0.102902 1.79355e-010 -3.63776e-014 3.7133e-013 -10.2786 0.731801 -0.0259123 1.7936e-010 -3.06128e-014 3.59403e-013 -2.22167 -0.733487 0.20892 -2.03217e-016 0 -3.88251e-019 1.7712 -6.79373 -0.168016 0.00306128 6.74208 0.0830242 -0.520378 0.046565 0.0600385 2.03217e-016 0 3.88251e-019 0.777828 -1.92427 0.00415859 0.00908683 -2.07858 0.0749441 0.493314 3.99766 -0.137533 
63.2559 83.3348 89.1345 -0.641213 2.05896 -0.419427 0.844207 -3.18707 0.113673 1.48868 1.97692 0.050195 -0.818903 -2.45094 -1.48792 0.236364 4.11946 -2.6054 -0 0 0 -0 0 0 -1.72829e-014 -2.55764e-014 -1.04044e-014 21.0343 7.421 0.00211702 -4.65051 -2.20643 7.15949 1.51872e-006 -0.0299022 -0.00420248 4.11803e-010 -5.81933e-010 1.96468e-010 7.11821e-010 -1.00664e-009 3.38899e-010 4.1181e-010 -5.81937e-010 1.96463e-010 7.73091 5.47488 0.417314 4.11804e-010 -5.81935e-010 1.9647e-010 2.90554 0.965183 0.102902 4.1181e-010 -5.81934e-010 1.96467e-010 10.2786 0.731801 0.0259123 4.11794e-010 -5.81926e-010 1.96476e-010 2.22167 -0.733487 -0.20892 -1.73938e-014 -2.55775e-014 -1.06742e-014 -20.7032 10.7968 -1.21264 5.10014 -2.52456 -7.72825 -0.0908388 -6.69415 0.917772 5.23205e-010 3.03012e-010 -2.28731e-010 9.06768e-010 5.27992e-010 -3.88043e-010 5.23198e-010 3.03009e-010 -2.28728e-010 -7.73091 5.47488 -0.417314 5.23202e-010 3.03009e-010 -2.28733e-010 -2.90554 0.965183 -0.102902 5.23202e-010 3.0301e-010 -2.28731e-010 -10.2786 0.731801 -0.0259123 5.23213e-010 3.03017e-010 -2.28741e-010 -2.22167 -0.733487 0.20892 -2.03217e-016 0 -3.88251e-019 1.82072 -11.1328 4.29461 0.0550295 15.2345 0.293342 -2.21072 -7.5397 -8.22861 2.03217e-016 0 3.88251e-019 0.749578 -7.74032 0.267372 -0.0454434 8.7319 -0.13524 1.21766 -1.23722 5.62066 
63.2965 83.3304 89.1226 0.063278 4.23158 -0.890017 -0.0290651 -6.55339 0.190792 2.57287 4.06111 0.0203386 -1.81867 -5.02528 -3.06908 0.9007 8.43563 -5.40598 -0 0 0 -0 0 0 -5.78144e-014 -5.23578e-014 -2.26925e-014 43.275 15.2581 -0.001508 -8.9741 -4.42555 14.7649 -1.79991e-006 -0.0601155 -0.00844868 6.78855e-010 -1.22966e-009 4.14519e-010 1.17375e-009 -2.12705e-009 7.15043e-010 6.78864e-010 -1.22967e-009 4.14515e-010 7.73091 5.47488 0.417314 6.78856e-010 -1.22967e-009 4.14522e-010 2.90554 0.965183 0.102902 6.78865e-010 -1.22966e-009 4.14519e-010 10.2786 0.731801 0.0259123 6.78845e-010 -1.22965e-009 4.14527e-010 2.22167 -0.733487 -0.20892 -5.78324e-014 -5.23575e-014 -2.29317e-014 -42.0455 22.1997 -2.64667 9.764 -5.0449 -15.9545 0.0525896 -13.7686 1.93108 9.09474e-010 6.45919e-010 -4.86409e-010 1.57746e-009 1.12555e-009 -8.25312e-010 9.09461e-010 6.45916e-010 -4.86406e-010 -7.73091 5.47488 -0.417314 9.09466e-010 6.45915e-010 -4.86409e-010 -2.90554 0.965183 -0.102902 9.09462e-010 6.45915e-010 -4.86408e-010 -10.2786 0.731801 -0.0259123 9.0948e-010 6.45924e-010 -4.86416e-010 -2.22167 -0.733487 0.20892 -2.03217e-016 0 -3.88251e-019 2.63025 -15.5905 9.18431 0.0356191 24.212 0.54286 -6.42322 -15.0324 -17.4545 2.03217e-016 0 3.88251e-019 0.777875 -13.8883 0.552582 -0.0124404 20.1591 -0.377286 3.12607 -6.64126 11.7882 
63.3165 83.3238 89.1061 0.719565 6.16775 -1.31301 -0.795105 -9.55616 0.252809 3.54837 5.926 -0.00953685 -2.84085 -7.3329 -4.49653 1.85139 12.255 -7.97895 -0 0 0 -0 0 0 -8.88211e-014 -7.67165e-014 -3.16106e-014 63.1012 22.263 0.00680516 -12.3322 -6.20675 21.5954 -8.60347e-006 -0.0897067 -0.0126075 8.76759e-010 -1.74573e-009 5.8868e-010 1.51614e-009 -3.01979e-009 1.01547e-009 8.76771e-010 -1.74574e-009 5.88677e-010 7.73091 5.47488 0.417314 8.76761e-010 -1.74574e-009 5.88686e-010 2.90554 0.965183 0.102902 8.76772e-010 -1.74574e-009 5.88682e-010 10.2786 0.731801 0.0259123 8.7675e-010 -1.74572e-009 5.8869e-010 2.22167 -0.733487 -0.20892 -8.87616e-014 -7.67155e-014 -3.18238e-014 -60.5262 32.3269 -4.23006 13.3065 -7.0237 -23.3476 0.405913 -20.0612 2.91132 1.21091e-009 9.09108e-010 -6.86938e-010 2.1008e-009 1.5841e-009 -1.1654e-009 1.2109e-009 9.09105e-010 -6.86935e-010 -7.73091 5.47488 -0.417314 1.2109e-009 9.09102e-010 -6.86936e-010 -2.90554 0.965183 -0.102902 1.2109e-009 9.09102e-010 -6.86936e-010 -10.2786 0.731801 -0.0259123 1.21092e-009 9.09112e-010 -6.86943e-010 -2.22167 -0.733487 0.20892 -2.03217e-016 0 -3.88251e-019 4.03501 -19.3739 13.7683 -0.0604606 32.2175 0.808725 -12.3215 -20.7619 -26.4258 2.03217e-016 0 3.88251e-019 0.861863 -19.3708 0.833692 0.11188 30.3514 -0.638293 5.81889 -11.1978 17.4755 
63.3442 83.319 89.0724 1.18748 7.51415 -1.6105 -1.31175 -11.6501 0.273973 4.24834 7.24262 -0.0393125 -3.65041 -8.99246 -5.50922 2.70914 14.9304 -9.82965 -0 0 0 -0 0 0 -9.60158e-014 -9.50181e-014 -3.21037e-014 76.8843 27.1872 0.0475737 -14.4071 -7.2876 26.3767 -1.70021e-005 -0.117743 -0.0165477 9.01795e-010 -1.93266e-009 6.53121e-010 1.55973e-009 -3.34336e-009 1.12659e-009 9.01808e-010 -1.93267e-009 6.53117e-010 7.73091 5.47488 0.417314 9.01798e-010 -1.93267e-009 6.53127e-010 2.90554 0.965183 0.102902 9.0181e-010 -1.93267e-009 6.53124e-010 10.2786 0.731801 0.0259123 9.01787e-010 -1.93265e-009 6.5313e-010 2.22167 -0.733487 -0.20892 -9.59172e-014 -9.50185e-014 -3.23025e-014 -73.0315 39.3244 -5.63546 15.4409 -8.17797 -28.5009 0.791879 -24.4191 3.65845 1.30028e-009 9.72998e-010 -7.44593e-010 2.25573e-009 1.69514e-009 -1.26252e-009 1.30026e-009 9.72996e-010 -7.4459e-010 -7.73091 5.47488 -0.417314 1.30027e-009 9.72993e-010 -7.4459e-010 -2.90554 0.965183 -0.102902 1.30026e-009 9.72993e-010 -7.44591e-010 -10.2786 0.731801 -0.0259123 1.30028e-009 9.73002e-010 -7.44596e-010 -2.22167 -0.733487 0.20892 -2.03217e-016 0 -3.88251e-019 5.41184 -21.8605 17.1232 -0.183812 37.7947 1.03247 -17.5998 -23.9493 -33.189 2.03217e-016 0 3.88251e-019 0.967653 -23.1908 1.06943 0.268868 37.4579 -0.866452 8.24487 -14.1525 21.5831 
63.3719 83.3199 89.0664 1.35208 8.03167 -1.73076 -1.47844 -12.4666 0.235977 4.56207 7.7925 -0.0690919 -4.03879 -9.76069 -5.92162 3.05731 16.0863 -10.5651 -0 0 0 -0 0 0 -6.18468e-014 -1.10086e-013 -1.81892e-014 82.2046 29.2083 0.140532 -15.1515 -7.65802 28.2263 -2.66245e-005 -0.148235 -0.0208331 6.0876e-010 -1.58917e-009 5.5098e-010 1.05361e-009 -2.74981e-009 9.50344e-010 6.08772e-010 -1.58918e-009 5.50975e-010 7.73091 5.47488 0.417314 6.08762e-010 -1.58918e-009 5.50986e-010 2.90554 0.965183 0.102902 6.08773e-010 -1.58917e-009 5.50983e-010 10.2786 0.731801 0.0259123 6.08753e-010 -1.58916e-009 5.50988e-010 2.22167 -0.733487 -0.20892 -6.17656e-014 -1.10091e-013 -1.83899e-014 -77.927 41.9855 -6.27521 16.1701 -8.53786 -30.4326 0.975753 -26.0988 3.96613 1.03203e-009 6.73237e-010 -5.83084e-010 1.78961e-009 1.17263e-009 -9.87329e-010 1.03201e-009 6.73235e-010 -5.83079e-010 -7.73091 5.47488 -0.417314 1.03202e-009 6.73232e-010 -5.8308e-010 -2.90554 0.965183 -0.102902 1.03201e-009 6.73232e-010 -5.83081e-010 -10.2786 0.731801 -0.0259123 1.03203e-009 6.7324e-010 -5.83086e-010 -2.22167 -0.733487 0.20892 -2.03217e-016 0 -3.88251e-019 6.06613 -22.7837 18.4875 -0.247574 39.969 1.13111 -19.9034 -24.9177 -35.9861 2.03217e-016 0 3.88251e-019 1.06218 -24.6824 1.22946 0.351024 40.2516 -0.971371 9.30659 -15.2665 23.1883 
63.3889 83.3221 89.064 1.29333 7.95762 -1.72295 -1.39617 -12.3709 0.15543 4.59917 7.79468 -0.0987656 -4.09611 -9.8962 -5.89837 2.94967 16.1773 -10.4707 -0 0 0 -0 0 0 1.48538e-015 -1.22593e-013 5.8921e-015 81.4843 29.1552 0.268457 -15.0448 -7.59692 27.9667 -3.91029e-005 -0.18026 -0.0253339 9.21526e-011 -8.70122e-010 3.30472e-010 1.61102e-010 -1.5069e-009 5.69907e-010 9.2161e-011 -8.70124e-010 3.30464e-010 7.73091 5.47488 0.417314 9.21536e-011 -8.70125e-010 3.30476e-010 2.90554 0.965183 0.102902 9.21621e-011 -8.70124e-010 3.30472e-010 10.2786 0.731801 0.0259123 9.21467e-011 -8.70115e-010 3.30476e-010 2.22167 -0.733487 -0.20892 1.50899e-015 -1.22606e-013 5.67778e-015 -77.623 41.5682 -6.18261 16.0113 -8.42872 -30.0444 0.95094 -25.8696 3.92385 5.11218e-010 1.17754e-010 -2.65939e-010 8.8489e-010 2.04577e-010 -4.47735e-010 5.11209e-010 1.17753e-010 -2.65931e-010 -7.73091 5.47488 -0.417314 5.11212e-010 1.17751e-010 -2.65935e-010 -2.90554 0.965183 -0.102902 5.11203e-010 1.17751e-010 -2.65936e-010 -10.2786 0.731801 -0.0259123 5.11223e-010 1.17757e-010 -2.65941e-010 -2.22167 -0.733487 0.20892 -2.03217e-016 0 -3.88251e-019 6.03898 -22.6654 18.3573 -0.239782 39.7132 1.11832 -19.6333 -24.7013 -35.7588 2.03217e-016 0 3.88251e-019 1.12972 -24.5112 1.32552 0.34176 39.9649 -0.959444 9.16564 -15.1812 22.9284 
63.3984 83.3215 89.0527 1.15987 7.65363 -1.65907 -1.22704 -11.9186 0.0580857 4.52324 7.57644 -0.127855 -4.02242 -9.77442 -5.6973 2.66677 15.824 -10.0356 -0 0 0 -0 0 0 6.364e-014 -1.25684e-013 2.986e-014 78.3541 28.2566 0.398708 -14.5952 -7.36141 26.8627 -5.14448e-005 -0.205486 -0.0288793 -3.92192e-010 -1.12248e-010 8.33692e-011 -6.75786e-010 -1.96684e-010 1.43532e-010 -3.92187e-010 -1.12247e-010 8.33585e-011 7.73091 5.47488 0.417314 -3.92193e-010 -1.12248e-010 8.33727e-011 2.90554 0.965183 0.102902 -3.92186e-010 -1.12249e-010 8.33667e-011 10.2786 0.731801 0.0259123 -3.92197e-010 -1.12243e-010 8.33703e-011 2.22167 -0.733487 -0.20892 6.35943e-014 -1.25704e-013 2.96275e-014 -75.2228 39.9313 -5.80922 15.4915 -8.12735 -28.7302 0.841702 -24.8529 3.73801 -1.34565e-011 -4.04601e-010 8.28302e-011 -2.67976e-011 -7.06436e-010 1.46159e-010 -1.34587e-011 -4.046e-010 8.28412e-011 -7.73091 5.47488 -0.417314 -1.34579e-011 -4.04601e-010 8.28342e-011 -2.90554 0.965183 -0.102902 -1.34656e-011 -4.04601e-010 8.28343e-011 -10.2786 0.731801 -0.0259123 -1.34506e-011 -4.04597e-010 8.28282e-011 -2.22167 -0.733487 0.20892 -2.03217e-016 0 -3.88251e-019 5.71962 -22.1405 17.6241 -0.203717 38.4931 1.06173 -18.3443 -24.0357 -34.314 2.03217e-016 0 3.88251e-019 1.15493 -23.6785 1.37235 0.295819 38.4368 -0.90044 8.54521 -14.5959 21.9399 
